<?xml version="1.0" encoding="utf-8"?>
<!-- Generator: $$$/GeneralStr/196=Adobe Illustrator 27.6.0, SVG Export Plug-In . SVG Version: 6.00 Build 0)  -->
<svg version="1.1" id="Calque_1" xmlns="http://www.w3.org/2000/svg" xmlns:xlink="http://www.w3.org/1999/xlink" x="0px" y="0px"
	 viewBox="0 0 373.5 249" style="enable-background:new 0 0 373.5 249;" xml:space="preserve">
<style type="text/css">
	.st0{fill:#FDF6F0;}
	
		.st1{clip-path:url(#SVGID_00000010278337255995820210000018274155552927709834_);fill:none;stroke:#000000;stroke-width:0.5;stroke-linecap:round;stroke-miterlimit:10;}
	.st2{clip-path:url(#SVGID_00000010278337255995820210000018274155552927709834_);}
	.st3{fill:#FFFFFF;stroke:#1B2939;stroke-width:0.5;stroke-linecap:round;stroke-miterlimit:10;}
	.st4{fill:#1B2939;}
	.st5{fill:#BB8CFF;}
</style>
<g id="Calque_2">
	<rect x="0" class="st0" width="373.5" height="247.9"/>
</g>
<g>
	<defs>
		<rect id="SVGID_1_" x="-0.1" width="341.1" height="170.6"/>
	</defs>
	<clipPath id="SVGID_00000025436433495223408460000018247856567352790445_">
		<use xlink:href="#SVGID_1_"  style="overflow:visible;"/>
	</clipPath>
	
		<path style="clip-path:url(#SVGID_00000025436433495223408460000018247856567352790445_);fill:none;stroke:#000000;stroke-width:0.5;stroke-linecap:round;stroke-miterlimit:10;" d="
		M79.8-14.4c3.1-3.1,36.7,59.6,98.3,66.4c70.8,7.7,37.6-60.3,39.4-28.8c1.8,31,77,25.8,64.4-53.9"/>
	<g style="clip-path:url(#SVGID_00000025436433495223408460000018247856567352790445_);">
		<path class="st3" d="M293.6,122.6c0,6.1,4.9,11.1,11.1,11.1c6.1,0,11.1-4.9,11.1-11.1c0-6.1-4.9-11.1-11.1-11.1
			C298.6,111.6,293.6,116.5,293.6,122.6z"/>
		<line class="st3" x1="305.2" y1="111.7" x2="305.2" y2="-132.2"/>
		<path class="st3" d="M313,69.8H297c-1.2,0-2.2,1-2.2,2.2v29.7c0,1.2,1,2.2,2.2,2.2H313c1.2,0,2.2-1,2.2-2.2V72.1
			C315.2,70.8,314.2,69.8,313,69.8z"/>
		<path class="st4" d="M339.7,122.7h-71.4c2.3-11.2,17.4-26,35.7-26C322.3,96.6,337.4,111.5,339.7,122.7z"/>
	</g>
	<g style="clip-path:url(#SVGID_00000025436433495223408460000018247856567352790445_);">
		<path class="st5" d="M78.9,18.9c0,2.2-1.8,4-4,4c-2.2,0-4-1.8-4-4c0-2.2,1.8-4,4-4C77.2,15,78.9,16.7,78.9,18.9z"/>
		<path class="st3" d="M195.9,28.7c0,2.2-1.8,4-4,4s-4-1.8-4-4s1.8-4,4-4S195.9,26.5,195.9,28.7z"/>
	</g>
</g>
</svg>
