<?xml version="1.0" encoding="utf-8"?>
<!-- Generator: $$$/GeneralStr/196=Adobe Illustrator 27.6.0, SVG Export Plug-In . SVG Version: 6.00 Build 0)  -->
<svg version="1.1" xmlns="http://www.w3.org/2000/svg" xmlns:xlink="http://www.w3.org/1999/xlink" x="0px" y="0px"
	 viewBox="0 0 471.5 351.5" style="enable-background:new 0 0 471.5 351.5;" xml:space="preserve">
<style type="text/css">
	.st0{fill:#FAE6DB;}
	.st1{fill:#19154B;}
	.st2{fill:#FFFFFF;}
	.st3{fill:none;stroke:#19154B;stroke-width:0.5;stroke-linecap:round;stroke-miterlimit:10;}
	.st4{fill:none;stroke:#FFFFFF;stroke-width:0.5;stroke-linecap:round;stroke-miterlimit:10;}
	.st5{fill:none;stroke:#141F2C;stroke-width:0.5;stroke-linecap:round;stroke-miterlimit:10;}
	.st6{fill:#141F2C;}
	.st7{fill:none;stroke:#897AB6;stroke-width:0.5;stroke-linecap:round;stroke-miterlimit:10;}
	.st8{fill:#8F6FF1;}
	.st9{fill:#E97E3E;}
	.st10{fill:#F2B45A;}
	.st11{fill:#0A1435;}
	.st12{fill:none;stroke:#FFFFFF;stroke-linecap:round;stroke-miterlimit:10;}
	.st13{fill:none;}
</style>
<g id="Calque_1">
	<path id="Tracé_171" class="st0" d="M117.8,134.2c0,74.1,60.1,134.2,134.2,134.2s134.2-60.1,134.2-134.2S326.1,0,252,0
		S117.8,60.1,117.8,134.2L117.8,134.2"/>
	<path id="Tracé_172" class="st1" d="M128.6,173.1c0,0-42.8,5.5-52.5-23c0,0,6.9,3.2,12-13.4s25.8-51.6,56.6-38.2
		c0,0,6.3-8.3,18.9-2.8c14,6.2,19.7,35.4,0,42.6c-19.7,7.2-34.9,34.8-34.9,34.8"/>
	<path id="Tracé_173" class="st2" d="M207.8,204.7c-27.2-23.3-50.5-15.3-68.4-17.3c-50.2-5.4-71.2,5.2-103.7,79.1
		c-8.7,19.8-17.2,31.3-17.1,53.2c0.2,42.5,140.5,25.9,140.5,25.9s95-4.7,152.2-6c0,0-67.9-18.6-79-62.2
		C222.7,239.8,229.4,223.2,207.8,204.7"/>
	<path id="Tracé_174" class="st3" d="M207.8,204.7c-27.2-23.3-50.5-15.3-68.4-17.3c-50.2-5.4-71.2,5.2-103.7,79.1
		c-8.7,19.8-17.2,31.3-17.1,53.2c0.2,42.5,140.5,25.9,140.5,25.9s95-4.7,152.2-6c0,0-67.9-18.6-79-62.2
		C222.7,239.8,229.4,223.2,207.8,204.7L207.8,204.7z"/>
	<path id="Tracé_175" class="st4" d="M190.5,247.7c0,0,8.4,14.1,4.6,29.4s-13,42.7-10.1,58.7"/>
	<path id="Tracé_176" class="st2" d="M159.5,308.3c0,0-62.1-29.8-93.3-14.8"/>
	<path id="Tracé_177" class="st5" d="M159.5,308.3c0,0-62.1-29.8-93.3-14.8"/>
	<path id="Tracé_178" class="st2" d="M99.2,255.2c0,0-10.8,11.5-16.5,33.7"/>
	<path id="Tracé_179" class="st5" d="M99.2,255.2c0,0-10.8,11.5-16.5,33.7"/>
	<path id="Tracé_180" class="st2" d="M151.3,124.2c6.7-4.3,15.6-9.7,16.9-0.7c0.8,5.8,0.8,10.8,3,19.5c4.7,18.8-7.6,31.8-25.3,26.6
		c-18.1-5.3-22.2-13.2-21.5-35.5c0.5-16.3,10-10.5,10-10.5S141.1,130.6,151.3,124.2"/>
	<path id="Tracé_181" class="st6" d="M164.9,135.6c0,1.5-0.6,2.7-1.3,2.7s-1.3-1.2-1.3-2.7s0.6-2.7,1.3-2.7
		S164.9,134.1,164.9,135.6"/>
	<path id="Tracé_182" class="st6" d="M147.6,137.4c0.4,1.4,0,2.8-0.6,3s-1.6-0.7-1.9-2.1s0-2.8,0.6-3S147.3,136,147.6,137.4"/>
	<path id="Tracé_183" class="st2" d="M159.2,170.1c0,0-1.7,9,3.8,16.6c0,0,4.4,14.8,0,30.1c-1.1,3.5-4.8,5.5-8.3,4.4
		c-0.9-0.3-1.7-0.7-2.4-1.3c-7.8-6.5-19.5-18.2-22.8-31c0,0,0.6-23.2-2.4-35.4c0,0,30.1,14.9,32.1,16.5"/>
	<path id="Tracé_184" class="st1" d="M159.2,170.1c-6,0.9-12-0.1-17.4-2.8c-9.1-4.5,3.6,12.9,18.2,12.2
		C160,179.5,158.7,176.3,159.2,170.1"/>
	<path id="Tracé_185" class="st6" d="M159.5,127.6c2.4-0.1,4.9,0.3,7.1,1.3C169.7,130.5,162.6,121.6,159.5,127.6"/>
	<path id="Tracé_186" class="st6" d="M144.8,130.9c0,0-3.8,1.5-5.3,3.4S138.8,125.9,144.8,130.9"/>
	<path id="Tracé_187" class="st2" d="M129.3,145.6c0,0-4.8-5.2-9.8-4.2s-1.2,15.9,9.2,13S129.3,145.6,129.3,145.6"/>
	<path id="Tracé_188" class="st5" d="M125.7,147.7c0,0-1.5-3.8-5.1-3.3"/>
	<path id="Tracé_189" class="st1" d="M124.6,141.5c0,0,10.1-5.2,10.1-22.8S108.9,120.6,124.6,141.5"/>
	<path id="Tracé_190" class="st5" d="M127.3,155.1c0,0,3.8,18.5,1.7,33.5"/>
	<path id="Tracé_191" class="st5" d="M159.4,171c0,4.6,2.1,15.4,4.5,17.3"/>
	<path id="Tracé_192" class="st5" d="M170.4,138.5c3,19.1,0,32-13.8,32.4"/>
	<path id="Tracé_194" class="st2" d="M145.2,339c0,0,0.4-25.7,14.9-30.9c0,0,23.2,0.2,41.4-6s27.9,29.2,27.9,29.2s-4.6,5-15.7-9.6
		c-0.1-0.2-0.4-0.2-0.5,0c-0.1,0-0.2,0.2-0.1,0.4l2.7,11.1"/>
	<path id="Tracé_195" class="st5" d="M145.2,339c0,0,0.4-25.7,14.9-30.9c0,0,23.2,0.2,41.4-6s27.9,29.2,27.9,29.2s-4.6,5-15.7-9.6
		c-0.1-0.2-0.4-0.2-0.5,0c-0.1,0-0.2,0.2-0.1,0.4l2.7,11.1"/>
	<path id="Tracé_196" class="st2" d="M191.1,318.1c0,0,6.9-6.4,11.4-7.3s11.1,10.9,11.1,10.9"/>
	<path id="Tracé_197" class="st5" d="M191.1,318.1c0,0,6.9-6.4,11.4-7.3s11.1,10.9,11.1,10.9"/>
	<path id="Tracé_198" class="st2" d="M190.3,323.6c0,0,14.7-5.9,13.8,5"/>
	<path id="Tracé_199" class="st5" d="M190.3,323.6c0,0,14.7-5.9,13.8,5"/>
	<path id="Tracé_200" class="st5" d="M128.5,187.7c0,0,9.1,29.7,32.2,29.9c19.7,0.2,3.4-28.9,3.4-28.9"/>
	<path id="Tracé_201" class="st7" d="M145.3,98.6c-14.2-2-36.9-26.1-55.6,38.1"/>
	<path id="Tracé_202" class="st2" d="M95.8,341.2l47.5,4.3c0,0,11-0.5,25.7-5.9"/>
	<path id="Tracé_203" class="st5" d="M95.8,341.2l47.5,4.3c0,0,11-0.5,25.7-5.9"/>
	<path id="Tracé_204" class="st2" d="M194.5,231.4c0,0,0.9,13.3,7.7,22.7c6.9,9.4-4.1,47.8-4.1,47.8"/>
	<path id="Tracé_205" class="st5" d="M194.5,231.4c0,0,0.9,13.3,7.7,22.7c6.9,9.4-4.1,47.8-4.1,47.8"/>
	<path id="Tracé_206" class="st8" d="M7.3,351.5h456.8c4,0,7.3-3.3,7.3-7.3s-3.3-7.3-7.3-7.3H7.3c-4,0-7.3,3.3-7.3,7.3
		S3.3,351.5,7.3,351.5"/>
	<path id="Tracé_207" class="st9" d="M431.3,94.5c0,0-3.8,25.1-29,44.8c0.8-5.3,0.5-10.7-3.3-12.7c-6.5-3.4-9.5,11.7-10.9,21.9
		c-14.6,7.7-34.2,13.3-60.2,14.1C327.9,162.6,349.4,63,431.3,94.5"/>
	<path id="Tracé_208" class="st2" d="M307.4,109.2c9.5-11,24.5-30.7,10.3-32.4c-12.7-1.6-29.4,15.5-39.6,27.7
		c-27-5.9-42.9-14-42.9-14c40.2-58.3,89-68,127.3-63.4c2.8,6.3,9.8,20.3,16.8,21c4.7,0.5,5.4-8.2,5.1-16.7l0.8,0.2
		c25,7,43.1,28.5,45.9,54.3l0.8,7.7c-47.9,17.2-91,19-124.5,15.5"/>
	<path id="Tracé_209" class="st5" d="M307.4,109.2c9.5-11,24.5-30.7,10.3-32.4c-12.7-1.6-29.4,15.5-39.6,27.7
		c-27-5.9-42.9-14-42.9-14c40.2-58.3,89-68,127.3-63.4c2.8,6.3,9.8,20.3,16.8,21c4.7,0.5,5.4-8.2,5.1-16.7l0.8,0.2
		c25,7,43.1,28.5,45.9,54.3l0.8,7.7c-47.9,17.2-91,19-124.5,15.5L307.4,109.2z"/>
	<path id="Tracé_210" class="st5" d="M235.2,90.6c0,0,92.9-78.2,196.6,3.1c0,0-1.5,54.4-27.2,92.7"/>
	<path id="Tracé_211" class="st5" d="M442.4,165.5c0,0,15.7-38.8,6.8-74.3"/>
	<path id="Tracé_212" class="st10" d="M259.7,192c0,3.8,3.1,7,7,7s7-3.1,7-7s-3.1-7-7-7S259.7,188.1,259.7,192L259.7,192"/>
	<circle id="Ellipse_11" class="st5" cx="235.6" cy="127.8" r="3.6"/>
	<path id="Tracé_213" class="st11" d="M274.4,337.6h154.9c2.5,0,4.6-1.8,4.9-4.3l12-95.7c0.3-2.7-1.6-5.2-4.3-5.5
		c-0.2,0-0.4,0-0.6,0H286.4c-2.5,0-4.6,1.9-4.9,4.3l-12,95.7c-0.3,2.7,1.6,5.2,4.3,5.5C274,337.6,274.2,337.6,274.4,337.6"/>
	<path id="Tracé_214" class="st11" d="M301.7,330.6H181c-2,0-3.6,1.6-3.6,3.6s1.6,3.6,3.6,3.6h120.7c2,0,3.6-1.6,3.6-3.6
		S303.7,330.6,301.7,330.6"/>
	<path id="Tracé_215" class="st6" d="M352.6,286.4c-0.4,6.2,3.6,11.5,9,11.9s10.1-4.3,10.6-10.5"/>
	<path id="Tracé_216" class="st12" d="M352.6,286.4c-0.4,6.2,3.6,11.5,9,11.9s10.1-4.3,10.6-10.5"/>
	<rect id="Rectangle_179" y="0" class="st13" width="471.5" height="351.5"/>
</g>
<g id="Calque_2">
	<circle class="st5" cx="156.2" cy="156.1" r="4.5"/>
</g>
</svg>
