<?xml version="1.0" encoding="utf-8"?>
<!-- Generator: $$$/GeneralStr/196=Adobe Illustrator 27.6.0, SVG Export Plug-In . SVG Version: 6.00 Build 0)  -->
<svg version="1.1" xmlns="http://www.w3.org/2000/svg" xmlns:xlink="http://www.w3.org/1999/xlink" x="0px" y="0px"
	 viewBox="0 0 197.8 197.8" style="enable-background:new 0 0 197.8 197.8;" xml:space="preserve">
<style type="text/css">
	.st0{fill:#19154B;}
	.st1{fill:#986DF8;}
	.st2{fill:#FFFFFF;}
	.st3{fill:none;stroke:#19154B;stroke-width:0.5;stroke-miterlimit:10;}
	.st4{fill:#1B2939;}
	.st5{fill:#FAE6DB;}
	.st6{fill:#F2B45A;}
	.st7{fill:none;stroke:#1B2939;stroke-width:0.5;stroke-linecap:round;stroke-miterlimit:10;}
	.st8{fill:#FFFFFF;stroke:#1B2939;stroke-width:0.5;stroke-linecap:round;stroke-miterlimit:10;}
</style>
<g id="Calque_1">
</g>
<g id="Calque_2">
	<path class="st0" d="M110.9,194.2c28.5,5.5,57.3-11.2,65.8-39c1.5-4.9,2.2-9.5,1.4-13.1c-4.3-19.3-22.6-19.2-12.6-38.3
		c11.6-22.3,15.6-40-2.3-55.4c-6.9-5.9-6.3-15.3-19.6-22.5c-3.2-1.7-6.2-1.4-7.8-2.8c-22-18.5-44.8,7.2-48.5,15.9
		c-1.5,3.5-4.8,5.7-8.4,6c-3.4,0.2-10.7-0.1-19.4,4.7c-9.3,5-17.4,15.2-19,23.4c-0.7,3.7-3,6.8-6.3,8.6c-4,2.1-25.7,14.6-34.1,34.1
		V154c3,15.9,5,23.6,5,23.6S72.2,186.8,110.9,194.2z"/>
	<path class="st1" d="M0,0v115.8c8.5-19.6,30.2-32,34.1-34.1c3.3-1.8,5.6-4.9,6.3-8.6c1.6-8.2,9.6-18.3,19-23.4
		c8.8-4.8,16-4.5,19.4-4.7c3.7-0.3,6.9-2.4,8.4-6c3.7-8.8,26.5-34.5,48.5-15.9c1.6,1.3,4.7,1.1,7.8,2.8
		c13.3,7.3,12.7,16.6,19.6,22.5c17.9,15.4,13.9,33.1,2.3,55.4c-10,19.1,8.3,19,12.6,38.3c0.8,3.6,0.1,8.2-1.4,13.1
		c-8.5,27.8-37.3,44.4-65.8,39C72.2,186.8,5,177.6,5,177.6s-2-7.7-5-23.6v43.8h197.8V0H0z"/>
	<path class="st2" d="M197.8,197.8v-21c-4.5-14.7-14.8-25-30.9-34c-11.2-6.2-25.1-11.8-41.9-17.8l-36.3-8.9c0,0-54.1-5.5-87.9,26.6
		c0,0,0,0,0,0c-0.2,0.2-0.5,0.5-0.7,0.7v54.3H197.8z"/>
	<path class="st3" d="M172.1,87.2c-10.3,19.9-9.2,32.3,9,48.1c18.2,15.8-2.7,32.1-21.2,35.5"/>
	<path class="st2" d="M140.2,57.6c3.1,8.5,18.6,5.4,16,15.5c-1.7,6.5-1.7,3-3.3,13.2c-3.4,21.9-22.1,30.2-38.5,16.8
		c-16.7-13.6-17.6-18.5-7-41.6c3.9-8.5,8.4-9.6,11.9-8.7c3.7,1,7.6,0.5,10.6-2C132.8,48.4,136.8,48.1,140.2,57.6z"/>
	<path class="st4" d="M145.3,90.8c-0.7,1.6-1.8,2.6-2.6,2.2c-0.8-0.3-0.9-1.9-0.2-3.4c0.7-1.6,1.8-2.6,2.6-2.2
		C145.9,87.7,146,89.3,145.3,90.8z"/>
	<path class="st4" d="M124.5,85.4c-0.3,1.7-1.2,3-2,2.9c-0.9,0-1.3-1.4-1.1-3.1c0.3-1.7,1.2-3,2-2.9
		C124.3,82.3,124.8,83.7,124.5,85.4z"/>
	<path class="st2" d="M128.3,109.5c0,0-5.7,8.7-3.3,19.2c0,0-22.8,13.7-36.3-12.5c0,0,10.9-24.2,13.1-38.3
		C101.8,77.9,126.9,106.9,128.3,109.5z"/>
	<path class="st5" d="M128.3,109.5c0,0-9.5-1.9-17.1-10.7c-7.6-8.8-1.9,15.2,13.7,20.9C124.9,119.7,124.9,115.8,128.3,109.5z"/>
	<path class="st4" d="M148,73.1c0,0,4.3,1.5,6.9,4.6C157.4,80.8,153.9,68.3,148,73.1z"/>
	<path class="st4" d="M128.6,66.7c0,0-7.8,0-10.7,0.6C115.2,67.8,124.5,58.7,128.6,66.7z"/>
	<path class="st2" d="M107.6,70.4c0,0-2.7-7.6-8.4-8.7c-5.7-1.2-8.3,16.3,3.9,17.7C115.3,80.9,107.6,70.4,107.6,70.4z"/>
	<path class="st6" d="M102.6,80c-1.1,2.5-4,3.7-6.5,2.6c-2.5-1.1-3.7-4-2.6-6.5c1.1-2.5,4-3.7,6.5-2.6
		C102.4,74.6,103.6,77.5,102.6,80z"/>
	<path class="st7" d="M102.9,71c0,0,0.1-4.6-3.9-5.8"/>
	<path class="st7" d="M76.9,116.8c0,0,6.6,23.6,34.2,30.4c26.5,6.5,22.5-18.8,22.5-18.8"/>
	<path class="st8" d="M121.4,94.6c0,0-0.3,4.4,4.6,5.6"/>
	<path class="st3" d="M136.5,46.8c0,0-10.2,17.2-28.8,4.8"/>
	<path class="st3" d="M154.9,37.3c0,0,0,7.3,19.9,16.2c19.9,8.9,17.3,36.6,5.2,37.7"/>
	<path class="st6" d="M122.5,145.3c4.9,5.6,5.3,13.1,1.1,16.9c-4.3,3.8-11.7,2.3-16.6-3.2c-4.9-5.6-5.3-13.1-1.1-16.9
		C110.2,138.3,117.7,139.7,122.5,145.3z"/>
</g>
</svg>
